<mxfile host="Electron" modified="2024-11-25T16:49:22.236Z" agent="Mozilla/5.0 (Windows NT 10.0; Win64; x64) AppleWebKit/537.36 (KHTML, like Gecko) draw.io/21.1.2 Chrome/106.0.5249.199 Electron/21.4.3 Safari/537.36" etag="cerCeO-QIWTUuTcuy0nc" version="21.1.2" type="device">
  <diagram name="Page-1" id="wkvAEV2VOkvAx1Za621z">
    <mxGraphModel dx="1010" dy="474" grid="1" gridSize="10" guides="1" tooltips="1" connect="1" arrows="1" fold="1" page="1" pageScale="1" pageWidth="1700" pageHeight="1100" math="0" shadow="0">
      <root>
        <mxCell id="0" />
        <mxCell id="1" parent="0" />
        <mxCell id="gBqebv4hSWEGAnxxr3U4-6" style="edgeStyle=orthogonalEdgeStyle;rounded=0;orthogonalLoop=1;jettySize=auto;html=1;entryX=0.5;entryY=0;entryDx=0;entryDy=0;" edge="1" parent="1" source="gBqebv4hSWEGAnxxr3U4-1" target="gBqebv4hSWEGAnxxr3U4-3">
          <mxGeometry relative="1" as="geometry" />
        </mxCell>
        <mxCell id="gBqebv4hSWEGAnxxr3U4-1" value="Start" style="strokeWidth=2;html=1;shape=mxgraph.flowchart.terminator;whiteSpace=wrap;" vertex="1" parent="1">
          <mxGeometry x="190" y="70" width="100" height="60" as="geometry" />
        </mxCell>
        <mxCell id="gBqebv4hSWEGAnxxr3U4-2" value="Stop" style="strokeWidth=2;html=1;shape=mxgraph.flowchart.terminator;whiteSpace=wrap;" vertex="1" parent="1">
          <mxGeometry x="190" y="1230" width="100" height="60" as="geometry" />
        </mxCell>
        <mxCell id="gBqebv4hSWEGAnxxr3U4-7" style="edgeStyle=orthogonalEdgeStyle;rounded=0;orthogonalLoop=1;jettySize=auto;html=1;entryX=0.5;entryY=0;entryDx=0;entryDy=0;" edge="1" parent="1" source="gBqebv4hSWEGAnxxr3U4-3" target="gBqebv4hSWEGAnxxr3U4-4">
          <mxGeometry relative="1" as="geometry" />
        </mxCell>
        <mxCell id="gBqebv4hSWEGAnxxr3U4-3" value="EmpID[ 10 ] = &quot; &quot;" style="rounded=0;whiteSpace=wrap;html=1;" vertex="1" parent="1">
          <mxGeometry x="180" y="170" width="120" height="40" as="geometry" />
        </mxCell>
        <mxCell id="gBqebv4hSWEGAnxxr3U4-8" style="edgeStyle=orthogonalEdgeStyle;rounded=0;orthogonalLoop=1;jettySize=auto;html=1;entryX=0.5;entryY=0;entryDx=0;entryDy=0;" edge="1" parent="1" source="gBqebv4hSWEGAnxxr3U4-4" target="gBqebv4hSWEGAnxxr3U4-5">
          <mxGeometry relative="1" as="geometry" />
        </mxCell>
        <mxCell id="gBqebv4hSWEGAnxxr3U4-4" value="h = 0" style="rounded=0;whiteSpace=wrap;html=1;" vertex="1" parent="1">
          <mxGeometry x="180" y="240" width="120" height="40" as="geometry" />
        </mxCell>
        <mxCell id="gBqebv4hSWEGAnxxr3U4-10" style="edgeStyle=orthogonalEdgeStyle;rounded=0;orthogonalLoop=1;jettySize=auto;html=1;entryX=0.5;entryY=0;entryDx=0;entryDy=0;" edge="1" parent="1" source="gBqebv4hSWEGAnxxr3U4-5" target="gBqebv4hSWEGAnxxr3U4-9">
          <mxGeometry relative="1" as="geometry" />
        </mxCell>
        <mxCell id="gBqebv4hSWEGAnxxr3U4-5" value="Salary = 0" style="rounded=0;whiteSpace=wrap;html=1;" vertex="1" parent="1">
          <mxGeometry x="180" y="320" width="120" height="40" as="geometry" />
        </mxCell>
        <mxCell id="gBqebv4hSWEGAnxxr3U4-16" style="edgeStyle=orthogonalEdgeStyle;rounded=0;orthogonalLoop=1;jettySize=auto;html=1;entryX=0.5;entryY=0;entryDx=0;entryDy=0;" edge="1" parent="1" source="gBqebv4hSWEGAnxxr3U4-9" target="gBqebv4hSWEGAnxxr3U4-11">
          <mxGeometry relative="1" as="geometry" />
        </mxCell>
        <mxCell id="gBqebv4hSWEGAnxxr3U4-9" value="OUTPUT &quot;Enter Empolyee ID:&amp;nbsp; &quot;" style="shape=parallelogram;perimeter=parallelogramPerimeter;whiteSpace=wrap;html=1;fixedSize=1;" vertex="1" parent="1">
          <mxGeometry x="130" y="400" width="220" height="60" as="geometry" />
        </mxCell>
        <mxCell id="gBqebv4hSWEGAnxxr3U4-17" style="edgeStyle=orthogonalEdgeStyle;rounded=0;orthogonalLoop=1;jettySize=auto;html=1;entryX=0.5;entryY=0;entryDx=0;entryDy=0;" edge="1" parent="1" source="gBqebv4hSWEGAnxxr3U4-11" target="gBqebv4hSWEGAnxxr3U4-12">
          <mxGeometry relative="1" as="geometry" />
        </mxCell>
        <mxCell id="gBqebv4hSWEGAnxxr3U4-11" value="INPUT EmpID" style="shape=parallelogram;perimeter=parallelogramPerimeter;whiteSpace=wrap;html=1;fixedSize=1;" vertex="1" parent="1">
          <mxGeometry x="130" y="490" width="220" height="60" as="geometry" />
        </mxCell>
        <mxCell id="gBqebv4hSWEGAnxxr3U4-18" style="edgeStyle=orthogonalEdgeStyle;rounded=0;orthogonalLoop=1;jettySize=auto;html=1;entryX=0.5;entryY=0;entryDx=0;entryDy=0;" edge="1" parent="1" source="gBqebv4hSWEGAnxxr3U4-12" target="gBqebv4hSWEGAnxxr3U4-13">
          <mxGeometry relative="1" as="geometry" />
        </mxCell>
        <mxCell id="gBqebv4hSWEGAnxxr3U4-12" value="OUTPUT &quot;Input the working hrs:&amp;nbsp; &quot;" style="shape=parallelogram;perimeter=parallelogramPerimeter;whiteSpace=wrap;html=1;fixedSize=1;" vertex="1" parent="1">
          <mxGeometry x="130" y="580" width="220" height="60" as="geometry" />
        </mxCell>
        <mxCell id="gBqebv4hSWEGAnxxr3U4-19" style="edgeStyle=orthogonalEdgeStyle;rounded=0;orthogonalLoop=1;jettySize=auto;html=1;entryX=0.5;entryY=0;entryDx=0;entryDy=0;" edge="1" parent="1" source="gBqebv4hSWEGAnxxr3U4-13" target="gBqebv4hSWEGAnxxr3U4-14">
          <mxGeometry relative="1" as="geometry" />
        </mxCell>
        <mxCell id="gBqebv4hSWEGAnxxr3U4-13" value="INPUT h" style="shape=parallelogram;perimeter=parallelogramPerimeter;whiteSpace=wrap;html=1;fixedSize=1;" vertex="1" parent="1">
          <mxGeometry x="130" y="670" width="220" height="60" as="geometry" />
        </mxCell>
        <mxCell id="gBqebv4hSWEGAnxxr3U4-20" style="edgeStyle=orthogonalEdgeStyle;rounded=0;orthogonalLoop=1;jettySize=auto;html=1;entryX=0.5;entryY=0;entryDx=0;entryDy=0;" edge="1" parent="1" source="gBqebv4hSWEGAnxxr3U4-14" target="gBqebv4hSWEGAnxxr3U4-15">
          <mxGeometry relative="1" as="geometry" />
        </mxCell>
        <mxCell id="gBqebv4hSWEGAnxxr3U4-14" value="OUTPUT &quot;Salary amount/hr:&amp;nbsp; &quot;" style="shape=parallelogram;perimeter=parallelogramPerimeter;whiteSpace=wrap;html=1;fixedSize=1;" vertex="1" parent="1">
          <mxGeometry x="130" y="770" width="220" height="60" as="geometry" />
        </mxCell>
        <mxCell id="gBqebv4hSWEGAnxxr3U4-24" style="edgeStyle=orthogonalEdgeStyle;rounded=0;orthogonalLoop=1;jettySize=auto;html=1;entryX=0.5;entryY=0;entryDx=0;entryDy=0;" edge="1" parent="1" source="gBqebv4hSWEGAnxxr3U4-15" target="gBqebv4hSWEGAnxxr3U4-21">
          <mxGeometry relative="1" as="geometry" />
        </mxCell>
        <mxCell id="gBqebv4hSWEGAnxxr3U4-15" value="INPUT Salary" style="shape=parallelogram;perimeter=parallelogramPerimeter;whiteSpace=wrap;html=1;fixedSize=1;" vertex="1" parent="1">
          <mxGeometry x="130" y="860" width="220" height="60" as="geometry" />
        </mxCell>
        <mxCell id="gBqebv4hSWEGAnxxr3U4-25" style="edgeStyle=orthogonalEdgeStyle;rounded=0;orthogonalLoop=1;jettySize=auto;html=1;" edge="1" parent="1" source="gBqebv4hSWEGAnxxr3U4-21" target="gBqebv4hSWEGAnxxr3U4-22">
          <mxGeometry relative="1" as="geometry" />
        </mxCell>
        <mxCell id="gBqebv4hSWEGAnxxr3U4-21" value="result = h * Salary" style="rounded=0;whiteSpace=wrap;html=1;" vertex="1" parent="1">
          <mxGeometry x="180" y="950" width="120" height="40" as="geometry" />
        </mxCell>
        <mxCell id="gBqebv4hSWEGAnxxr3U4-26" style="edgeStyle=orthogonalEdgeStyle;rounded=0;orthogonalLoop=1;jettySize=auto;html=1;entryX=0.5;entryY=0;entryDx=0;entryDy=0;" edge="1" parent="1" source="gBqebv4hSWEGAnxxr3U4-22" target="gBqebv4hSWEGAnxxr3U4-23">
          <mxGeometry relative="1" as="geometry" />
        </mxCell>
        <mxCell id="gBqebv4hSWEGAnxxr3U4-22" value="OUTPUT &quot;Employees ID =&amp;nbsp; &quot; EmpID" style="shape=parallelogram;perimeter=parallelogramPerimeter;whiteSpace=wrap;html=1;fixedSize=1;" vertex="1" parent="1">
          <mxGeometry x="130" y="1030" width="220" height="60" as="geometry" />
        </mxCell>
        <mxCell id="gBqebv4hSWEGAnxxr3U4-27" style="edgeStyle=orthogonalEdgeStyle;rounded=0;orthogonalLoop=1;jettySize=auto;html=1;entryX=0.5;entryY=0;entryDx=0;entryDy=0;entryPerimeter=0;" edge="1" parent="1" source="gBqebv4hSWEGAnxxr3U4-23" target="gBqebv4hSWEGAnxxr3U4-2">
          <mxGeometry relative="1" as="geometry" />
        </mxCell>
        <mxCell id="gBqebv4hSWEGAnxxr3U4-23" value="OUTPUT &quot;Salary = u$&amp;nbsp; &quot; result" style="shape=parallelogram;perimeter=parallelogramPerimeter;whiteSpace=wrap;html=1;fixedSize=1;" vertex="1" parent="1">
          <mxGeometry x="130" y="1130" width="220" height="60" as="geometry" />
        </mxCell>
      </root>
    </mxGraphModel>
  </diagram>
</mxfile>
